<?xml version="1.0" encoding="UTF-8" standalone="no"?>
<svg id="svg4137" xmlns:rdf="http://www.w3.org/1999/02/22-rdf-syntax-ns#" xmlns="http://www.w3.org/2000/svg" version="1.1" xmlns:cc="http://creativecommons.org/ns#" xmlns:dc="http://purl.org/dc/elements/1.1/" viewBox="0 0 16 16">
 <g id="layer1" transform="translate(0 -1036.4)">
  <g id="g3" fill="#3d7634" transform="translate(-.013837 1036.4)">
   <path id="path4142" style="color-rendering:auto;text-decoration-color:#000000;color:#000000;isolation:auto;mix-blend-mode:normal;shape-rendering:auto;solid-color:#000000;block-progression:tb;text-decoration-line:none;image-rendering:auto;white-space:normal;text-indent:0;text-transform:none;text-decoration-style:solid" d="m8.0493 3.0106c-1.3625-0.009-2.5559 0.21-3.457 0.6172-0.4506 0.2036-0.8323 0.4539-1.1172 0.7754-0.285 0.3215-0.4692 0.734-0.461 1.1719 0.00845 0.4498 0.21452 0.86095 0.51562 1.1758 0.3011 0.31483 0.69382 0.55338 1.1484 0.74414 0.90924 0.38153 2.0815 0.57041 3.3496 0.55273 1.2788-0.017826 2.4721-0.28065 3.3926-0.72461 0.66338-0.31996 1.1212-0.80081 1.3867-1.3613 0.16274-0.10235 0.1097-0.28455 0.10018-0.47656-0.000918-0.024559-0.11184 0.29466-0.11184 0.29466 0.0039-0.045947 0.1564-0.43492 0.1564-0.48216 0.0025-0.20885-0.01182-0.2731-0.2644-0.72065-0.366-0.5188-0.589-0.6969-1.2-0.9669-0.88-0.3884-2.0487-0.5904-3.4377-0.5996zm-0.0059 1.0625c1.2858 0.0085 2.334 0.21159 3.0137 0.51172 0.60545 0.26733 0.77617 0.55674 0.83398 0.83789-0.06676 0.28035-0.27963 0.62888-0.93164 0.94336-0.739 0.3561-1.8088 0.6013-2.9478 0.6172-1.1498 0.016-2.2045-0.1677-2.9219-0.4688-0.3587-0.1505-0.629-0.3305-0.791-0.5-0.162-0.1694-0.2178-0.3076-0.2207-0.4609-0.0027-0.1426 0.0434-0.2762 0.1933-0.4453 0.15-0.1692 0.4062-0.3528 0.7579-0.5117 0.7034-0.3179 1.7724-0.5317 3.0136-0.5235z"/>
   <path id="path4146" style="color-rendering:auto;text-decoration-color:#000000;color:#000000;isolation:auto;mix-blend-mode:normal;shape-rendering:auto;solid-color:#000000;block-progression:tb;text-decoration-line:none;image-rendering:auto;white-space:normal;text-indent:0;text-transform:none;text-decoration-style:solid" fill-rule="evenodd" d="m3.5395 4.9208c-0.2769 0.0032-0.4985 0.2309-0.4941 0.5078v3.1191 3c0 0.80588 0.48495 1.3856 1 1.6836 0.97383 0.56351 1.6178 0.51481 2.3988 0.64155 0.52058 0.08448 1.0503 0.12672 1.5801 0.12672 0.52975 0 1.0595-0.04224 1.5801-0.12672 0.80343-0.13038 1.6431-0.15233 2.4528-0.64741 0.91026-0.5566 0.98633-1.625 0.98633-1.625 0.0016-0.01753 0.0023-0.03513 0.002-0.05273v-3-3.082c0.0096-0.67616-1.0096-0.67616-1 0v3.082 2.9551c-0.0013 0.0085-0.09631 0.61632-0.50977 0.86914-0.6539 0.39985-1.313 0.45508-2.0703 0.57797-0.46651 0.0757-0.94285 0.11345-1.4194 0.11339-0.476-0.001-0.9527-0.039-1.42-0.114-0.7205-0.116-1.211-0.082-2.0782-0.584-0.3261-0.189-0.5019-0.36-0.5019-0.818v-3-3.1191c0.0044-0.2818-0.2244-0.5114-0.5059-0.5081z"/>
   <path id="path4174" style="color-rendering:auto;text-decoration-color:#000000;color:#000000;isolation:auto;mix-blend-mode:normal;shape-rendering:auto;solid-color:#000000;block-progression:tb;text-decoration-line:none;image-rendering:auto;white-space:normal;text-indent:0;text-transform:none;text-decoration-style:solid" fill-rule="evenodd" d="m12.52 7.9599c-0.12979 0.00718-0.25168 0.064628-0.33984 0.16016l-0.953 0.9941c-0.536 0.478-1.5575 0.9658-3.1972 0.9338-1.43-0.036-2.1015-0.2424-3.0013-0.7453-0.4605-0.2574-0.788-0.7064-1.1296-1.1085-0.3755-0.442-1.1979 0.2358-0.707 0.7071l1 1c0.037232 0.037079 0.080075 0.068058 0.12695 0.091797 1.8199 0.93182 2.2021 1.0165 3.7148 1.0547 0.016266 0.000795 0.032562 0.000795 0.048828 0 1.6686-0.1199 2.6563-0.32097 3.7598-1.1387 0.02239-0.017086 0.0433-0.036034 0.0625-0.056641l0.99805-1.041c0.32281-0.32518 0.07467-0.87716-0.38281-0.85156z"/>
  </g>
 </g>
</svg>
