<!-- Created with Inkscape (http://www.inkscape.org/) -->
<svg xmlns:rdf="http://www.w3.org/1999/02/22-rdf-syntax-ns#" xmlns="http://www.w3.org/2000/svg" version="1.1" xmlns:cc="http://creativecommons.org/ns#" xmlns:dc="http://purl.org/dc/elements/1.1/" viewBox="0 0 16 16">
 <metadata>
  <rdf:RDF>
   <cc:Work rdf:about="">
    <dc:format>image/svg+xml</dc:format>
    <dc:type rdf:resource="http://purl.org/dc/dcmitype/StillImage"/>
    <dc:title/>
   </cc:Work>
  </rdf:RDF>
 </metadata>
 <g transform="translate(0,-1036.3622)">
  <g transform="matrix(0.66666606,0,0,0.66666602,-2.4279732e-8,1036.3622)" fill="#3d7634">
   <path d="m20.053,8.6667c1.3339-1.3333,1.2228-3.3333-0.11116-4.6667-1.3339-1.3333-3.6683-1.3333-4.7799,0l-8.9827,9.1149v0.14981l-0.13239,0.17977h-0.11116s-0.11116,0.11111-0.11116,0.22222l-2.779,6.6667c-0.11116,0.22222,0,0.44444,0.11116,0.55556,0.11116,0,0.22232,0.11111,0.33348,0.11111h0.33348l6.8919-3v-0.33333h-0.33348s0,0.22222,0.11116,0.22222c0,0,0.11116,0.11111,0.22232,0.11111l0.11116,0.11111zm-3.553-4.1667-0.62,0.5663c0.88928-0.88889,1.9444-0.66712,2.8702,0.18372,0.49319,0.45327,0.61437,0.77133,0.75,1.1522,0.13564,0.3809-0.0109,1.2022-0.29663,1.4753-2.5948,2.4804-5.5275,5.6459-8.4961,8.4558l0.1199-0.33333c0-0.33333-0.22232-0.55556-0.5558-0.55556h-1.7785v-1.6667c0-0.33333-0.22232-0.55556-0.5558-0.55556h-0.33348zm-8.563,12.056,1.6674,0,0,0.77778-3.4459,1.4444-1.0004-1,1.4451-3.4444,0.77812,0,0,1.6667c0,0.33333,0.22232,0.55556,0.5558,0.55556z"/>
   <path d="m11.272,13.222c0.11116,0,0.33348,0,0.44464-0.11111l6.1138-6.1111c0.22232-0.22222,0.22232-0.55556,0-0.77778s-0.5558-0.22222-0.77812,0l-6.1138,6.1111c-0.22232,0.22222-0.22232,0.55556,0,0.77778,0,0.11111,0.22232,0.11111,0.33348,0.11111z"/>
  </g>
 </g>
</svg>
