<?xml version="1.0" encoding="UTF-8" standalone="no"?>
<svg id="svg4135" xmlns:rdf="http://www.w3.org/1999/02/22-rdf-syntax-ns#" xmlns="http://www.w3.org/2000/svg" version="1.1" xmlns:cc="http://creativecommons.org/ns#" xmlns:dc="http://purl.org/dc/elements/1.1/" viewBox="0 0 16 16">
 <g id="layer1" transform="translate(0 -1036.4)">
  <g id="g4690" stroke="#3d7634" transform="translate(.000022202 1036.4)">
   <path id="path4138" stroke-linejoin="round" d="m10.484 7.7708a2.4946 2.4946 0 0 1 -2.2422 2.7122 2.4946 2.4946 0 0 1 -2.7234 -2.2286 2.4946 2.4946 0 0 1 2.2146 -2.7346 2.4946 2.4946 0 0 1 2.746 2.2007" fill-opacity="0" stroke-linecap="round" stroke-width="1.011"/>
   <path id="path4148" d="m2.5209 5.5084v5.9749c-0.07652 1.0649-0.00368 0.99582 0.9962 0.99582h8.9658c1.0653 0.07648 0.9962 0.0037 0.9962-0.99582v-5.9749c0.077-1.0646 0.004-0.9955-0.996-0.9955h-0.9962c0.076-1.0649 0.003-0.9958-0.997-0.9958 0.077-1.0649 0.004-0.9959-0.9957-0.9959h-2.9886c-1.0653-0.0765-0.9962-0.0036-0.9962 0.9959-1.0653-0.0765-0.9962-0.0037-0.9962 0.9958h-0.9962c-1.0656-0.0762-0.9965-0.0034-0.9965 0.9961z" stroke-width=".99601px" fill="none"/>
  </g>
 </g>
</svg>
